{
  "accessors": [
    {
      "bufferView": 2,
      "componentType": 5126,
      "count": 17056,
      "max": [
        0.4944588541984558,
        0.49381881952285767,
        0.29612964391708374
      ],
      "min": [
        -0.49768102169036865,
        -0.49383461475372314,
        -0.29612964391708374
      ],
      "type": "VEC3"
    },
    {
      "bufferView": 2,
      "byteOffset": 204672,
      "componentType": 5126,
      "count": 17056,
      "max": [
        0.9998847246170044,
        0.9985072612762451,
        1.0
      ],
      "min": [
        -0.999248743057251,
        -1.0,
        -1.0
      ],
      "type": "VEC3"
    },
    {
      "bufferView": 1,
      "componentType": 5126,
      "count": 17056,
      "max": [
        0.9176523685455322,
        0.9998661875724792
      ],
      "min": [
        1.3321638107299805e-05,
        0.000102689751656726
      ],
      "type": "VEC2"
    },
    {
      "bufferView": 1,
      "byteOffset": 136448,
      "componentType": 5126,
      "count": 17056,
      "max": [
        0.9176523685455322,
        0.9998661875724792
      ],
      "min": [
        1.3321638107299805e-05,
        0.000102689751656726
      ],
      "type": "VEC2"
    },
    {
      "bufferView": 1,
      "byteOffset": 272896,
      "componentType": 5126,
      "count": 17056,
      "max": [
        0.9176523685455322,
        0.9998661875724792
      ],
      "min": [
        1.3321638107299805e-05,
        0.000102689751656726
      ],
      "type": "VEC2"
    },
    {
      "bufferView": 0,
      "componentType": 5125,
      "count": 99690,
      "type": "SCALAR"
    }
  ],
  "asset": {
    "extras": {
      "author": "Astari28 (https://sketchfab.com/Astari28)",
      "license": "CC-BY-SA-4.0 (http://creativecommons.org/licenses/by-sa/4.0/)",
      "source": "https://sketchfab.com/3d-models/otak-manusia-f2b87ebd24b84d9db8fb579250ef6aeb",
      "title": "Otak Manusia"
    },
    "generator": "Sketchfab-13.13.0",
    "version": "2.0"
  },
  "bufferViews": [
    {
      "buffer": 0,
      "byteLength": 398760,
      "name": "floatBufferViews",
      "target": 34963
    },
    {
      "buffer": 0,
      "byteLength": 409344,
      "byteOffset": 398760,
      "byteStride": 8,
      "name": "floatBufferViews",
      "target": 34962
    },
    {
      "buffer": 0,
      "byteLength": 409344,
      "byteOffset": 808104,
      "byteStride": 12,
      "name": "floatBufferViews",
      "target": 34962
    }
  ],
  "buffers": [
    {
      "byteLength": 1217448,
      "uri": "scene.bin"
    }
  ],
  "extensionsRequired": [
    "KHR_materials_pbrSpecularGlossiness"
  ],
  "extensionsUsed": [
    "KHR_materials_pbrSpecularGlossiness"
  ],
  "images": [
    {
      "uri": "textures/1853_diffuse.png"
    },
    {
      "uri": "textures/1853_specularGlossiness.png"
    }
  ],
  "materials": [
    {
      "doubleSided": true,
      "extensions": {
        "KHR_materials_pbrSpecularGlossiness": {
          "diffuseFactor": [
            1.0,
            1.0,
            1.0,
            1.0
          ],
          "diffuseTexture": {
            "index": 0
          },
          "glossinessFactor": 1.0,
          "specularFactor": [
            1.0,
            1.0,
            1.0
          ],
          "specularGlossinessTexture": {
            "index": 1
          }
        }
      },
      "name": "1853"
    }
  ],
  "meshes": [
    {
      "name": "Object_0",
      "primitives": [
        {
          "attributes": {
            "NORMAL": 1,
            "POSITION": 0,
            "TEXCOORD_0": 2,
            "TEXCOORD_1": 3,
            "TEXCOORD_2": 4
          },
          "indices": 5,
          "material": 0,
          "mode": 4
        }
      ]
    }
  ],
  "nodes": [
    {
      "children": [
        1
      ],
      "matrix": [
        1.0,
        0.0,
        0.0,
        0.0,
        0.0,
        2.220446049250313e-16,
        -1.0,
        0.0,
        0.0,
        1.0,
        2.220446049250313e-16,
        0.0,
        0.0,
        0.0,
        0.0,
        1.0
      ],
      "name": "Sketchfab_model"
    },
    {
      "children": [
        2
      ],
      "name": "root"
    },
    {
      "children": [
        3
      ],
      "matrix": [
        1.0,
        0.0,
        0.0,
        0.0,
        0.0,
        2.220446049250313e-16,
        1.0,
        0.0,
        0.0,
        -1.0,
        2.220446049250313e-16,
        0.0,
        0.0,
        0.0,
        0.0,
        1.0
      ],
      "name": "GLTF_SceneRootNode"
    },
    {
      "children": [
        4
      ],
      "name": "root_1"
    },
    {
      "children": [
        5
      ],
      "matrix": [
        0.8665972024552387,
        -0.3526409122832535,
        0.2892692900484345,
        0.0,
        0.34570722772840884,
        0.7078389116874909,
        -0.17276620287817365,
        0.0,
        -0.08917329462025823,
        0.154823120377074,
        0.45588764034323587,
        0.0,
        0.07529250532388687,
        0.2944316267967224,
        0.03272639214992523,
        1.0
      ],
      "name": "_0"
    },
    {
      "mesh": 0,
      "name": "Object_5"
    }
  ],
  "samplers": [
    {
      "magFilter": 9729,
      "minFilter": 9987,
      "wrapS": 10497,
      "wrapT": 10497
    }
  ],
  "scene": 0,
  "scenes": [
    {
      "name": "Sketchfab_Scene",
      "nodes": [
        0
      ]
    }
  ],
  "textures": [
    {
      "sampler": 0,
      "source": 0
    },
    {
      "sampler": 0,
      "source": 1
    }
  ]
}
